<svg width="76" height="76" viewBox="0 0 76 76" fill="none" xmlns="http://www.w3.org/2000/svg">
<path d="M37.9492 1.5C58.0793 1.50014 74.3975 17.8191 74.3975 37.9492C74.3973 58.0792 58.0792 74.3973 37.9492 74.3975C17.8191 74.3975 1.50014 58.0793 1.5 37.9492C1.5 17.819 17.819 1.5 37.9492 1.5Z" fill="white" fill-opacity="0.92" stroke="#7A7A7A" stroke-width="3"/>
<path d="M53.7118 9.09656C51.9579 10.0049 47.9444 11.4707 46.9031 13.1341C46.6518 13.5278 46.4808 13.9673 46.3999 14.4273C46.319 14.8874 46.3298 15.3589 46.4317 15.8147C46.5336 16.2705 46.7246 16.7017 46.9937 17.0835C47.2628 17.4653 47.6047 17.7901 47.9998 18.0393C49.6594 19.0824 51.7308 18.4584 52.9031 16.8855C53.9462 15.4861 53.7099 12.8627 53.7118 9.09656ZM27.8656 10.9427C26.1117 11.851 22.0982 13.3169 21.057 14.9803C20.8057 15.374 20.6346 15.8135 20.5537 16.2735C20.4728 16.7335 20.4836 17.205 20.5855 17.6608C20.6874 18.1167 20.8784 18.5479 21.1475 18.9297C21.4166 19.3114 21.7585 19.6363 22.1536 19.8855C23.8133 20.9286 25.8847 20.3046 27.057 18.7316C28.1001 17.3322 27.8637 14.7089 27.8656 10.9427ZM40.7887 16.4812C39.0348 17.3895 35.0213 18.8553 33.9801 20.5187C33.7287 20.9124 33.5577 21.3519 33.4768 21.812C33.3959 22.272 33.4067 22.7435 33.5086 23.1993C33.6105 23.6551 33.8015 24.0863 34.0706 24.4681C34.3397 24.8499 34.6816 25.1747 35.0767 25.4239C36.7364 26.467 38.8078 25.843 39.9801 24.2701C41.0231 22.8707 40.7868 20.2473 40.7887 16.4812Z" fill="#7A7A7A"/>
<path d="M59.335 61C60.9176 61 61.8732 59.2489 61.0169 57.9179L56.2624 50.5275C55.8381 49.8678 56.3117 49 57.096 49C57.8979 49 58.3679 48.0973 57.908 47.4404L46.639 31.3418C45.8426 30.2041 44.1575 30.2045 43.3616 31.3426L40.6388 35.2362C39.8426 36.3747 38.1569 36.3747 37.3608 35.2362L34.6379 31.3426C33.842 30.2045 32.1569 30.2041 31.3605 31.3418L20.0915 47.4404C19.6316 48.0973 20.1016 49 20.9035 49C21.6878 49 22.1614 49.8678 21.7371 50.5275L16.9826 57.9179C16.1263 59.2489 17.0819 61 18.6646 61H26.9998C28.1043 61 28.9998 61.8954 28.9998 63V67C28.9998 68.1046 29.8952 69 30.9998 69H34.9998C36.1043 69 36.9998 68.1046 36.9998 67V63C36.9998 61.8954 37.8952 61 38.9998 61C40.1043 61 40.9998 61.8954 40.9998 63V67C40.9998 68.1046 41.8952 69 42.9998 69H46.9998C48.1043 69 48.9998 68.1046 48.9998 67V63C48.9998 61.8954 49.8952 61 50.9998 61H59.335ZM43.3618 38.3174C44.1581 37.181 45.8413 37.1811 46.6376 38.3175L50.3328 43.5914C50.7484 44.1846 50.3241 45 49.5998 45C48.8915 45 48.4639 45.7836 48.8471 46.3793L53.6969 53.9179C54.5532 55.2489 53.5976 57 52.015 57H49.532C48.8513 57 48.2173 56.6538 47.8494 56.0811L44.2758 50.5191C43.8541 49.8629 44.3254 49 45.1054 49C45.9033 49 46.3708 48.1018 45.9132 47.4483L42.2434 42.2076C41.7609 41.5187 41.7611 40.6015 42.2438 39.9126L43.3618 38.3174ZM25.9846 57C24.4019 57 23.4463 55.2489 24.3026 53.9179L29.1524 46.3793C29.5356 45.7836 29.108 45 28.3997 45C27.6754 45 27.2511 44.1846 27.6667 43.5914L31.3618 38.3177C32.1581 37.1812 33.8414 37.1813 34.6377 38.3177L38.3328 43.5914C38.7484 44.1846 38.3241 45 37.5998 45C36.8915 45 36.4639 45.7836 36.8471 46.3793L41.6969 53.9179C42.5532 55.2489 41.5976 57 40.015 57H25.9846Z" fill="#7A7A7A"/>
</svg>
