<svg width="76" height="76" viewBox="0 0 76 76" fill="none" xmlns="http://www.w3.org/2000/svg">
<path d="M37.9492 1.5C58.0793 1.50014 74.3975 17.8191 74.3975 37.9492C74.3973 58.0792 58.0792 74.3973 37.9492 74.3975C17.8191 74.3975 1.50014 58.0793 1.5 37.9492C1.5 17.819 17.819 1.5 37.9492 1.5Z" fill="white" fill-opacity="0.92" stroke="#48A1DE" stroke-width="3"/>
<path fill-rule="evenodd" clip-rule="evenodd" d="M29.8423 31.9655V36.5727C23.9912 36.5727 19.897 35.1506 17.0835 33.2002C16.5903 32.8488 16.2552 32.3173 16.151 31.7206C16.0467 31.124 16.1816 30.5103 16.5264 30.0125C16.8713 29.5146 17.3983 29.1725 17.9935 29.0603C18.5887 28.9482 19.2041 29.0749 19.7065 29.4132C21.62 30.74 24.756 31.9655 29.8423 31.9655ZM29.8423 31.9655C35.721 31.9655 38.5559 28.4119 38.86 25.451C39.0135 23.946 38.5528 22.5393 37.4932 21.5104C36.4366 20.4784 34.5446 19.5999 31.4394 19.6798C30.9156 19.6941 30.4025 19.5294 29.9849 19.2129C29.5673 18.8964 29.2701 18.4469 29.1423 17.9387C29.0146 17.4306 29.0639 16.894 29.2822 16.4176C29.5004 15.9412 29.8746 15.5535 30.3429 15.3184C36.6793 12.1333 42.8221 12.6094 47.7886 14.4737C52.6845 16.3104 56.536 19.5324 58.5386 22.1062C58.8517 22.5106 59.0214 23.0077 59.0208 23.5191V31.5662C59.0212 31.9633 58.9189 32.3538 58.7239 32.6997C58.5288 33.0456 58.2477 33.3352 57.9077 33.5404C57.5677 33.7456 57.1805 33.8595 56.7836 33.8709C56.3866 33.8823 55.9935 33.791 55.6423 33.6057C53.781 32.6228 51.6033 31.9655 48.2708 31.9655C44.1459 31.9655 41.8116 32.9668 39.4466 34.0572L39.075 34.2292C36.6823 35.341 34.0225 36.5757 29.8423 36.5727V31.9655ZM37.5239 43.4772C34.9808 44.6567 32.0475 46.0142 28.4939 46.0142C22.953 46.0142 18.696 44.1837 17.0467 43.0841C16.7914 42.9179 16.5715 42.7027 16.4 42.451C16.2284 42.1993 16.1084 41.916 16.047 41.6176C15.9856 41.3192 15.984 41.0116 16.0423 40.7126C16.1006 40.4136 16.2177 40.1291 16.3866 39.8757C16.5556 39.6222 16.7732 39.4048 17.0268 39.2359C17.2804 39.0671 17.5649 38.9503 17.864 38.8922C18.163 38.8341 18.4706 38.8359 18.769 38.8974C19.0673 38.959 19.3505 39.0792 19.6021 39.2509C20.4928 39.8468 23.8653 41.4071 28.4908 41.4071C31.0094 41.4071 33.0918 40.4457 35.853 39.1742L36.0619 39.0759C38.8446 37.7951 42.1587 36.3239 46.514 36.3239C49.8465 36.3239 52.2514 36.9013 54.1434 37.7674C55.7098 38.48 56.8708 39.3799 57.7001 40.0249L58.1055 40.3352C58.5935 40.7034 58.9152 41.2503 58.9998 41.8557C59.0845 42.4611 58.9252 43.0753 58.557 43.5632C58.1889 44.0512 57.6419 44.3729 57.0365 44.4575C56.4311 44.5422 55.8169 44.3829 55.329 44.0147L54.8007 43.6093C53.9806 42.9766 53.2742 42.4329 52.233 41.9569C51.0259 41.404 49.2844 40.931 46.514 40.931C43.246 40.931 40.7243 41.9999 37.9908 43.2622L37.5239 43.4772ZM28.4939 55.7476C33.7675 55.7476 36.7622 54.2948 39.3238 52.9403L39.6217 52.7806C41.873 51.5889 43.6145 50.6644 46.7904 50.6644C50.9983 50.6644 53.0469 52.3997 54.0635 53.7082C54.4383 54.1908 54.9894 54.5048 55.5956 54.5811C56.2018 54.6575 56.8136 54.4898 57.2962 54.1151C57.7789 53.7404 58.0929 53.1893 58.1692 52.5831C58.2455 51.9768 58.0779 51.3651 57.7032 50.8824C55.8941 48.5543 52.5524 46.0603 46.7904 46.0603C42.4597 46.0603 39.849 47.4424 37.5331 48.6741L37.1707 48.8676C34.9224 50.0532 32.7018 51.1404 28.4908 51.1404C23.8653 51.1404 20.4959 49.5832 19.6021 48.9874C19.3505 48.8156 19.0673 48.6955 18.769 48.6339C18.4706 48.5723 18.163 48.5705 17.864 48.6286C17.5649 48.6867 17.2804 48.8035 17.0268 48.9724C16.7732 49.1412 16.5556 49.3586 16.3866 49.6121C16.2177 49.8656 16.1006 50.1501 16.0423 50.4491C15.984 50.7481 15.9856 51.0557 16.047 51.3541C16.1084 51.6525 16.2284 51.9357 16.4 52.1874C16.5715 52.4391 16.7914 52.6543 17.0467 52.8205C18.696 53.9201 22.9561 55.7476 28.4939 55.7476Z" fill="#48A1DE"/>
</svg>
